<?xml version="1.0" encoding="UTF-8"?>
<svg xmlns="http://www.w3.org/2000/svg" xmlns:xlink="http://www.w3.org/1999/xlink" width="360pt" height="260pt" viewBox="0 0 360 260" version="1.1">
  fill="#1B6DB6">
    <circle fill="#1B6DB6" cx="80" cy="80" r="50"/>
    <g transform=" matrix(1.02,-0.66,0.09,0.20,80,72)">
      <path d="M 0,70 A 65,70 0 0,0 65,0 5,5 0 0,1 75,0 75,70 0 0,1 0,70Z" fill="#DDA63C">
        <animateTransform attributeName="transform" type="rotate" from="360 0 0" to="0 0 0" dur="2.5s" repeatCount="indefinite" />
      </path>
    </g>
    <path fill="#1B6DB6" d="M 50,0 A 50,50 0 0,0 -50,0Z" transform="matrix(0.866, -0.5, 0.5, 0.866, 80, 80)" />
<g id="surface1" transform="scale(0.59), matrix(1, 0, 0, 1, 54, 110)">
<path style=" stroke:none;fill-rule:nonzero;fill:rgb(100%,100%,100%);fill-opacity:1;" d="M 79.007812 2.597656 C 79.003906 4.027344 78.996094 10.554688 78.992188 17.101562 C 78.984375 25.160156 78.976562 29.144531 78.964844 29.417969 C 78.929688 30.265625 78.949219 31.71875 79 32.523438 C 79.253906 36.460938 80.28125 39.527344 82.332031 42.46875 C 82.84375 43.207031 83.589844 44.160156 84.175781 44.839844 C 84.417969 45.121094 85.117188 45.816406 85.421875 46.085938 C 86.355469 46.90625 87.328125 47.597656 88.457031 48.25 C 91.238281 49.855469 94.371094 50.8125 97.386719 50.976562 C 97.753906 51 98.867188 51 99.285156 50.976562 C 105.039062 50.703125 109.957031 48.222656 113.699219 43.703125 C 116.324219 40.539062 117.652344 37.191406 117.851562 33.238281 C 117.871094 32.839844 117.871094 31.070312 117.851562 30.523438 C 117.71875 26.859375 117.070312 24.386719 115.550781 21.722656 C 114.824219 20.445312 113.589844 18.714844 112.773438 17.832031 C 112.363281 17.386719 111.8125 16.867188 111.339844 16.484375 C 108.410156 14.121094 104.128906 12.574219 99.800781 12.324219 C 99.523438 12.308594 98.640625 12.285156 97.480469 12.265625 C 96.960938 12.257812 96.316406 12.273438 95.886719 12.300781 L 95.746094 12.3125 L 95.746094 25.835938 L 97.378906 25.839844 C 99.125 25.847656 99.105469 25.847656 99.570312 25.929688 C 100.523438 26.105469 101.367188 26.507812 102.117188 27.144531 C 102.347656 27.34375 102.726562 27.734375 102.914062 27.972656 C 103.703125 28.960938 104.101562 30.082031 104.140625 31.441406 C 104.183594 32.835938 103.761719 34.089844 102.898438 35.132812 C 102.746094 35.316406 102.375 35.695312 102.175781 35.867188 C 101.457031 36.496094 100.636719 36.929688 99.75 37.148438 C 99.214844 37.28125 98.78125 37.332031 98.148438 37.332031 C 96.203125 37.328125 94.847656 36.878906 93.921875 35.917969 C 93.253906 35.226562 92.816406 34.277344 92.558594 32.972656 C 92.445312 32.394531 92.378906 31.824219 92.316406 30.886719 C 92.300781 30.683594 92.296875 26.796875 92.292969 15.308594 L 92.289062 0 L 79.015625 0 Z M 79.007812 2.597656 "/>
<path style=" stroke:none;fill-rule:nonzero;fill:rgb(100%,100%,100%);fill-opacity:1;" d="M 138.566406 15.214844 C 138.574219 30.8125 138.570312 30.652344 138.632812 31.96875 C 138.832031 36.425781 139.554688 39.292969 141.144531 41.960938 C 142.164062 43.671875 143.363281 45.105469 144.667969 46.183594 C 145.652344 46.992188 146.714844 47.660156 148.226562 48.421875 C 149.257812 48.9375 150.003906 49.238281 150.972656 49.515625 C 152.503906 49.960938 154.039062 50.203125 156.078125 50.316406 C 156.53125 50.34375 158.492188 50.34375 158.972656 50.316406 C 159.847656 50.269531 159.972656 50.261719 159.984375 50.25 C 159.992188 50.242188 159.984375 50.238281 159.957031 50.238281 L 159.917969 50.238281 L 159.917969 36.832031 L 159.882812 36.832031 C 159.753906 36.832031 159.257812 36.796875 159.0625 36.777344 C 158.152344 36.679688 157.171875 36.457031 156.324219 36.148438 C 154.800781 35.589844 153.65625 34.78125 153.023438 33.8125 C 152.566406 33.109375 152.210938 31.988281 152.082031 30.832031 C 152.011719 30.183594 151.988281 29.621094 151.988281 28.359375 L 151.988281 27.417969 L 153.144531 27.40625 C 153.78125 27.402344 155.394531 27.394531 156.730469 27.394531 L 159.164062 27.394531 L 159.164062 13.945312 L 151.945312 13.945312 L 151.945312 0 L 138.558594 0 Z M 138.566406 15.214844 "/>
<path style=" stroke:none;fill-rule:nonzero;fill:rgb(100%,100%,100%);fill-opacity:1;" d="M 25.066406 0.03125 C 21.886719 0.0976562 18.828125 0.679688 15.96875 1.757812 C 12.226562 3.171875 8.898438 5.457031 6.285156 8.40625 C 3.113281 11.988281 1.058594 16.425781 0.308594 21.3125 C 0.179688 22.148438 0.0859375 23.050781 0.0273438 24.046875 C 0 24.5 0 26.503906 0.0273438 26.925781 C 0.109375 28.195312 0.222656 29.160156 0.425781 30.238281 C 1.515625 36.15625 4.691406 41.476562 9.394531 45.277344 C 13.511719 48.609375 18.566406 50.578125 23.90625 50.9375 C 24.621094 50.988281 25.050781 50.996094 26 50.988281 C 26.910156 50.980469 27.117188 50.972656 27.769531 50.925781 C 33.476562 50.492188 38.835938 48.214844 43.066406 44.429688 C 43.605469 43.945312 44.4375 43.117188 44.910156 42.597656 C 46.992188 40.292969 48.601562 37.699219 49.722656 34.84375 C 50.65625 32.460938 51.222656 29.925781 51.40625 27.34375 C 51.484375 26.222656 51.484375 24.875 51.414062 23.738281 C 51.117188 19.109375 49.683594 14.785156 47.21875 11.089844 C 43.632812 5.707031 38.101562 2.003906 31.59375 0.625 C 29.984375 0.285156 28.191406 0.0742188 26.617188 0.0390625 C 25.808594 0.0234375 25.601562 0.0195312 25.066406 0.03125 Z M 26.640625 13.882812 C 27.601562 13.960938 28.472656 14.121094 29.335938 14.386719 C 33.292969 15.589844 36.292969 18.710938 37.277344 22.648438 C 37.601562 23.960938 37.703125 25.351562 37.5625 26.730469 C 37.3125 29.210938 36.265625 31.554688 34.585938 33.378906 C 32.636719 35.503906 30 36.832031 27.09375 37.15625 C 26.59375 37.210938 26.320312 37.222656 25.726562 37.222656 C 24.832031 37.222656 24.15625 37.160156 23.328125 36.996094 C 20.007812 36.332031 17.175781 34.347656 15.46875 31.488281 C 14.609375 30.050781 14.066406 28.414062 13.898438 26.730469 C 13.820312 25.964844 13.820312 25.074219 13.894531 24.300781 C 14.167969 21.613281 15.355469 19.132812 17.277344 17.25 C 19.171875 15.394531 21.632812 14.238281 24.332031 13.929688 C 24.554688 13.90625 24.695312 13.894531 25.195312 13.863281 C 25.363281 13.851562 26.4375 13.867188 26.640625 13.882812 Z M 26.640625 13.882812 "/>
<path style=" stroke:none;fill-rule:nonzero;fill:rgb(100%,100%,100%);fill-opacity:1;" d="M 127.652344 0.613281 C 126.207031 0.679688 125.109375 0.933594 124.105469 1.429688 C 123.4375 1.757812 122.9375 2.117188 122.421875 2.632812 C 122.03125 3.023438 121.785156 3.335938 121.519531 3.777344 C 120.957031 4.707031 120.640625 5.785156 120.554688 7.046875 C 120.53125 7.394531 120.542969 8.203125 120.578125 8.5 C 120.730469 9.863281 121.191406 10.988281 122.007812 11.980469 C 122.1875 12.199219 122.683594 12.699219 122.90625 12.882812 C 123.960938 13.757812 125.164062 14.289062 126.578125 14.507812 C 128.191406 14.753906 129.921875 14.597656 131.273438 14.085938 C 132.757812 13.515625 134.042969 12.445312 134.8125 11.128906 C 135.539062 9.882812 135.820312 8.335938 135.636719 6.59375 C 135.421875 4.585938 134.507812 3.039062 132.886719 1.953125 C 131.769531 1.207031 130.488281 0.777344 128.953125 0.640625 C 128.703125 0.617188 127.894531 0.601562 127.652344 0.613281 Z M 127.652344 0.613281 "/>
<path style=" stroke:none;fill-rule:nonzero;fill:rgb(100%,100%,100%);fill-opacity:1;" d="M 69.625 12 C 66.078125 12.144531 63.746094 12.867188 61.570312 14.511719 C 60.972656 14.964844 60.488281 15.390625 59.847656 16.035156 C 59.28125 16.605469 58.949219 16.980469 58.5625 17.480469 C 56.398438 20.289062 55.214844 23.976562 54.953125 28.71875 C 54.910156 29.5 54.910156 30.234375 54.910156 40.109375 L 54.910156 50.34375 L 68.429688 50.34375 L 68.433594 40.820312 C 68.4375 33.578125 68.441406 31.25 68.457031 31.109375 C 68.523438 30.449219 68.578125 30.082031 68.679688 29.660156 C 69.230469 27.390625 70.648438 26.175781 73.148438 25.824219 C 73.359375 25.792969 73.449219 25.789062 74.335938 25.789062 L 75.296875 25.789062 L 75.292969 19.03125 L 75.289062 12.269531 L 74.84375 12.21875 C 73.886719 12.113281 72.882812 12.035156 72.097656 12 C 71.664062 11.984375 70.097656 11.984375 69.625 12 Z M 69.625 12 "/>
<path style=" stroke:none;fill-rule:nonzero;fill:rgb(100%,100%,100%);fill-opacity:1;" d="M 121.371094 33.828125 L 121.371094 50.269531 L 134.75 50.269531 L 134.75 17.390625 L 121.371094 17.390625 Z M 121.371094 33.828125 "/>
</g>
</svg>
