<svg xmlns="http://www.w3.org/2000/svg" xmlns:xlink="http://www.w3.org/1999/xlink" viewBox="0 0 138.167 138.167" fill="#fff" fill-rule="evenodd" stroke="#000" stroke-linecap="round" stroke-linejoin="round"><use xlink:href="#A" x="2.083" y="2.083"/><symbol id="A" overflow="visible"><g stroke="none" fill-rule="nonzero"><use xlink:href="#C" fill="#d0cfce"/><g fill="#3f3f3f"><use xlink:href="#D"/><use xlink:href="#E"/></g><use xlink:href="#F" fill="#d0cfce"/><g fill="#9b9b9a"><use xlink:href="#G"/><use xlink:href="#H"/></g><use xlink:href="#I" fill="#3f3f3f"/></g><g fill="none" stroke-width="4.167"><path d="M86.206 46.622l-5.062 5.063M51.685 81.143l-5 5.042-1.083 1.042M16.414 20.581v16.667m22.917-20.833h-18.75" stroke-linejoin="miter" stroke-linecap="butt"/><use xlink:href="#C"/><use xlink:href="#D"/><use xlink:href="#E"/><use xlink:href="#F"/><use xlink:href="#G"/><use xlink:href="#H"/><use xlink:href="#I"/></g></symbol><defs ><path id="C" d="M41.998 42.258c7.569-7.569 8.196-19.61 1.813-27.917-.368-.479-.925-.776-1.527-.816s-1.194.181-1.623.606L14.331 40.464c-.417.42-.638.996-.609 1.587s.306 1.143.763 1.519A20.4 20.4 0 0 0 42 42.258z"/><path id="D" d="M24.181 132.514L.61 108.943c-.813-.813-.813-2.132 0-2.946l31.458-31.458c.813-.813 2.132-.813 2.946 0L58.585 98.11c.813.813.813 2.132 0 2.946l-31.458 31.458c-.814.813-2.132.813-2.946 0z"/><path id="E" d="M98.108 58.587L74.539 35.018c-.813-.814-.813-2.132 0-2.946L105.997.61c.814-.813 2.132-.813 2.946 0l23.571 23.571c.813.813.813 2.132 0 2.946l-31.458 31.458c-.814.813-2.132.813-2.946 0z"/><path id="F" d="M99.581 73.064L73.064 99.581c-.814.813-2.132.813-2.946 0L40.656 70.119c-.813-.814-.813-2.132 0-2.946l26.517-26.517c.814-.813 2.132-.813 2.946 0l29.462 29.463c.813.814.813 2.132 0 2.946z"/><path id="G" d="M67.173 40.656L40.656 67.173c-.813.813-2.132.813-2.946 0l-8.838-8.842c-.813-.813-.813-2.132 0-2.946l26.515-26.512c.813-.813 2.132-.813 2.946 0l8.84 8.84c.813.813.813 2.132 0 2.946z"/><path id="H" d="M102.529 84.852l-17.677 17.677c-.814.813-2.132.813-2.946 0l-4.417-4.417c-.813-.814-.813-2.132 0-2.946l17.677-17.677c.814-.813 2.132-.813 2.946 0l4.417 4.417c.813.814.813 2.132 0 2.946z"/><path id="I" d="M14.138 20.032a4.16 4.16 0 1 1 5.893-5.893 4.16 4.16 0 1 1-5.892 5.893z"/></defs></svg>